<svg width="1370" height="1024" viewBox="0 0 1370 1024" fill="none" xmlns="http://www.w3.org/2000/svg">
<circle cx="443.5" cy="580.5" r="431" stroke="#E98868" stroke-width="25"/>
<mask id="path-2-inside-1_116_521" fill="white">
<rect x="281" y="218" width="451" height="698" rx="5"/>
</mask>
<rect x="281" y="218" width="451" height="698" rx="5" fill="#E98868" stroke="#E98868" stroke-width="40" mask="url(#path-2-inside-1_116_521)"/>
<mask id="path-3-inside-2_116_521" fill="white">
<path d="M629 309H1020C1185.69 309 1320 443.315 1320 609V916H1029C808.086 916 629 736.914 629 516V309Z"/>
</mask>
<path d="M624 299H1020C1191.21 299 1330 437.792 1330 609H1310C1310 448.837 1180.16 319 1020 319H634L624 299ZM1330 926H1029C805.325 926 624 744.675 624 521L634 516C634 731.391 810.848 906 1029 906H1310L1330 926ZM1029 926C805.325 926 624 744.675 624 521V299L634 319V516C634 731.391 810.848 906 1029 906V926ZM1020 299C1191.21 299 1330 437.792 1330 609V926L1310 906V609C1310 448.837 1180.16 319 1020 319V299Z" fill="#3E7494" mask="url(#path-3-inside-2_116_521)"/>
<circle cx="1022" cy="348" r="348" fill="#3E7494"/>
</svg>
